<svg width="686" height="967" viewBox="0 0 686 967" fill="none" xmlns="http://www.w3.org/2000/svg">
<rect width="686" height="967" fill="#D9D9D9" fill-opacity="0.55"/>
<g filter="url(#filter0_dif_7_30)">
<rect x="101" y="344" width="484" height="208" rx="44" fill="#E4CCFF"/>
</g>
<path d="M203.617 425.352V413.182H260.958V425.352H239.583V483H224.992V425.352H203.617ZM262.482 483V430.636H276.562V439.773H277.107C278.062 436.523 279.664 434.068 281.914 432.409C284.164 430.727 286.755 429.886 289.687 429.886C290.414 429.886 291.198 429.932 292.039 430.023C292.88 430.114 293.619 430.239 294.255 430.398V443.284C293.573 443.08 292.63 442.898 291.426 442.739C290.221 442.58 289.119 442.5 288.119 442.5C285.982 442.5 284.073 442.966 282.392 443.898C280.732 444.807 279.414 446.08 278.437 447.716C277.482 449.352 277.005 451.239 277.005 453.375V483H262.482ZM310.115 502.636C308.274 502.636 306.547 502.489 304.934 502.193C303.343 501.92 302.024 501.568 300.979 501.136L304.252 490.295C305.956 490.818 307.49 491.102 308.854 491.148C310.24 491.193 311.434 490.875 312.434 490.193C313.456 489.511 314.286 488.352 314.922 486.716L315.774 484.5L296.99 430.636H312.263L323.104 469.091H323.649L334.593 430.636H349.968L329.615 488.659C328.638 491.477 327.309 493.932 325.627 496.023C323.968 498.136 321.865 499.761 319.32 500.898C316.774 502.057 313.706 502.636 310.115 502.636ZM398.861 484.023C393.566 484.023 388.986 482.898 385.123 480.648C381.282 478.375 378.316 475.216 376.225 471.17C374.134 467.102 373.089 462.386 373.089 457.023C373.089 451.614 374.134 446.886 376.225 442.841C378.316 438.773 381.282 435.614 385.123 433.364C388.986 431.091 393.566 429.955 398.861 429.955C404.157 429.955 408.725 431.091 412.566 433.364C416.429 435.614 419.407 438.773 421.498 442.841C423.589 446.886 424.634 451.614 424.634 457.023C424.634 462.386 423.589 467.102 421.498 471.17C419.407 475.216 416.429 478.375 412.566 480.648C408.725 482.898 404.157 484.023 398.861 484.023ZM398.929 472.773C401.339 472.773 403.35 472.091 404.964 470.727C406.577 469.341 407.793 467.455 408.611 465.068C409.452 462.682 409.873 459.966 409.873 456.92C409.873 453.875 409.452 451.159 408.611 448.773C407.793 446.386 406.577 444.5 404.964 443.114C403.35 441.727 401.339 441.034 398.929 441.034C396.498 441.034 394.452 441.727 392.793 443.114C391.157 444.5 389.918 446.386 389.077 448.773C388.259 451.159 387.85 453.875 387.85 456.92C387.85 459.966 388.259 462.682 389.077 465.068C389.918 467.455 391.157 469.341 392.793 470.727C394.452 472.091 396.498 472.773 398.929 472.773ZM446.392 452.727V483H431.869V430.636H445.71V439.875H446.324C447.483 436.83 449.426 434.42 452.153 432.648C454.881 430.852 458.187 429.955 462.074 429.955C465.71 429.955 468.881 430.75 471.585 432.341C474.29 433.932 476.392 436.205 477.892 439.159C479.392 442.091 480.142 445.591 480.142 449.659V483H465.619V452.25C465.642 449.045 464.824 446.545 463.165 444.75C461.506 442.932 459.221 442.023 456.312 442.023C454.358 442.023 452.631 442.443 451.131 443.284C449.653 444.125 448.494 445.352 447.653 446.966C446.835 448.557 446.415 450.477 446.392 452.727Z" fill="#BA96E2" fill-opacity="0.8"/>
<g filter="url(#filter1_d_7_30)">
<path d="M399.106 607.895L372.822 522.047C371.014 516.143 377.179 510.961 382.684 513.756L459.263 552.644C464.22 555.161 464.406 562.173 459.591 564.95L433.447 580.025C432.572 580.53 431.816 581.219 431.231 582.044L411.513 609.891C408.153 614.636 400.808 613.454 399.106 607.895Z" fill="#F3DDA3"/>
<path d="M399.106 607.895L372.822 522.047C371.014 516.143 377.179 510.961 382.684 513.756L459.263 552.644C464.22 555.161 464.406 562.173 459.591 564.95L433.447 580.025C432.572 580.53 431.816 581.219 431.231 582.044L411.513 609.891C408.153 614.636 400.808 613.454 399.106 607.895Z" stroke="#A06A00" stroke-width="4"/>
</g>
<defs>
<filter id="filter0_dif_7_30" x="96" y="339" width="494" height="221" filterUnits="userSpaceOnUse" color-interpolation-filters="sRGB">
<feFlood flood-opacity="0" result="BackgroundImageFix"/>
<feColorMatrix in="SourceAlpha" type="matrix" values="0 0 0 0 0 0 0 0 0 0 0 0 0 0 0 0 0 0 127 0" result="hardAlpha"/>
<feOffset dy="4"/>
<feGaussianBlur stdDeviation="2"/>
<feComposite in2="hardAlpha" operator="out"/>
<feColorMatrix type="matrix" values="0 0 0 0 0 0 0 0 0 0 0 0 0 0 0 0 0 0 0.25 0"/>
<feBlend mode="normal" in2="BackgroundImageFix" result="effect1_dropShadow_7_30"/>
<feBlend mode="normal" in="SourceGraphic" in2="effect1_dropShadow_7_30" result="shape"/>
<feColorMatrix in="SourceAlpha" type="matrix" values="0 0 0 0 0 0 0 0 0 0 0 0 0 0 0 0 0 0 127 0" result="hardAlpha"/>
<feOffset/>
<feGaussianBlur stdDeviation="2"/>
<feComposite in2="hardAlpha" operator="arithmetic" k2="-1" k3="1"/>
<feColorMatrix type="matrix" values="0 0 0 0 0 0 0 0 0 0 0 0 0 0 0 0 0 0 0.25 0"/>
<feBlend mode="normal" in2="shape" result="effect2_innerShadow_7_30"/>
<feGaussianBlur stdDeviation="2.5" result="effect3_foregroundBlur_7_30"/>
</filter>
<filter id="filter1_d_7_30" x="370.496" y="506.971" width="133.598" height="111.878" filterUnits="userSpaceOnUse" color-interpolation-filters="sRGB">
<feFlood flood-opacity="0" result="BackgroundImageFix"/>
<feColorMatrix in="SourceAlpha" type="matrix" values="0 0 0 0 0 0 0 0 0 0 0 0 0 0 0 0 0 0 127 0" result="hardAlpha"/>
<feOffset dx="35"/>
<feGaussianBlur stdDeviation="2"/>
<feComposite in2="hardAlpha" operator="out"/>
<feColorMatrix type="matrix" values="0 0 0 0 0 0 0 0 0 0 0 0 0 0 0 0 0 0 0.25 0"/>
<feBlend mode="normal" in2="BackgroundImageFix" result="effect1_dropShadow_7_30"/>
<feBlend mode="normal" in="SourceGraphic" in2="effect1_dropShadow_7_30" result="shape"/>
</filter>
</defs>
</svg>
